<?xml version="1.0" standalone="no"?>
<!DOCTYPE svg PUBLIC "-//W3C//DTD SVG 20010904//EN"
 "http://www.w3.org/TR/2001/REC-SVG-20010904/DTD/svg10.dtd">
<svg version="1.0" xmlns="http://www.w3.org/2000/svg"
 width="512.000000pt" height="512.000000pt" viewBox="0 0 512.000000 512.000000"
 preserveAspectRatio="xMidYMid meet">

<g transform="translate(0.000000,512.000000) scale(0.100000,-0.100000)"
fill="#000000" stroke="none">
<path d="M64 5110 c-12 -4 -31 -21 -43 -36 l-21 -27 0 -2488 0 -2489 29 -32
29 -33 1849 -2 c1460 -2 1853 0 1873 10 14 7 33 29 43 50 18 36 18 38 0 74
-24 51 -53 63 -150 63 l-83 0 0 180 0 180 230 0 230 0 0 -222 c0 -126 5 -240
11 -261 11 -40 56 -77 94 -77 38 0 83 37 94 77 14 51 15 884 1 935 -19 68 -44
78 -196 78 l-134 0 0 85 0 84 38 6 c351 51 612 185 828 425 399 443 443 1104
108 1596 -223 327 -568 529 -965 564 -63 5 -117 10 -121 10 -5 0 -8 62 -8 138
0 138 0 139 -29 178 -34 46 -895 904 -931 928 -22 15 -142 16 -1390 15 -751 0
-1375 -4 -1386 -9z m2626 -610 l0 -420 29 -32 29 -33 426 -3 426 -3 0 -84 0
-84 -37 -10 c-21 -6 -43 -11 -50 -11 -32 0 -208 -67 -293 -111 -694 -361 -913
-1264 -462 -1899 220 -309 520 -486 925 -545 l37 -6 0 -84 0 -85 -134 0 c-152
0 -177 -10 -196 -78 -6 -22 -10 -190 -10 -424 l0 -388 -1590 0 -1590 0 0 2360
0 2360 1245 0 1245 0 0 -420z m485 -10 l280 -280 -283 0 -282 0 0 280 c0 154
1 280 3 280 1 0 128 -126 282 -280z m754 -840 c133 -14 253 -49 376 -109 557
-274 777 -955 483 -1501 -308 -575 -1037 -755 -1585 -393 -78 51 -202 171
-262 252 -411 554 -223 1339 394 1642 116 57 247 96 360 108 115 12 123 12
234 1z m121 -2825 l0 -65 -230 0 -230 0 0 65 0 65 230 0 230 0 0 -65z"/>
<path d="M764 4567 c-105 -30 -191 -121 -213 -227 -9 -40 -11 -238 -9 -735 l3
-680 27 -51 c33 -62 88 -117 148 -146 l45 -23 715 0 715 0 45 23 c60 29 115
84 148 146 l27 51 3 680 c2 499 0 695 -9 735 -23 109 -113 202 -221 228 -66
17 -1366 15 -1424 -1z m1423 -220 l28 -27 3 -671 c1 -390 -1 -677 -7 -686 -7
-13 -14 -6 -36 37 -34 68 -106 137 -176 172 -30 15 -102 36 -159 47 -57 12
-105 23 -107 25 -3 2 19 25 47 52 33 31 64 74 88 123 l37 75 3 195 c3 132 0
209 -9 240 -32 122 -128 239 -234 287 -248 114 -533 -21 -604 -287 -9 -31 -12
-108 -9 -240 l3 -195 37 -75 c24 -49 55 -92 88 -123 28 -27 50 -50 47 -52 -2
-2 -50 -13 -107 -25 -57 -11 -129 -32 -159 -47 -70 -35 -142 -104 -176 -172
-22 -43 -29 -50 -36 -37 -6 9 -8 295 -7 685 3 654 3 670 23 692 11 12 29 26
40 31 11 4 320 7 687 6 l668 -2 27 -28z m-634 -301 c43 -16 102 -59 117 -85 9
-18 8 -18 -28 1 -48 25 -87 17 -132 -26 -55 -54 -116 -80 -192 -84 -76 -5 -79
-1 -53 61 47 113 176 173 288 133z m107 -325 l45 -28 0 -84 c0 -77 -3 -88 -30
-129 -17 -24 -52 -58 -79 -75 -42 -25 -59 -30 -116 -30 -57 0 -74 5 -116 30
-70 44 -105 101 -112 181 l-5 64 69 0 c90 0 186 30 259 80 17 11 32 20 35 19
3 0 25 -13 50 -28z m-116 -560 c7 -10 -52 -111 -64 -111 -12 0 -71 101 -64
111 3 5 32 9 64 9 32 0 61 -4 64 -9z m-257 -189 l41 -67 -88 -3 c-49 -1 -133
-1 -187 0 l-98 3 38 42 c43 48 130 80 242 92 6 0 29 -30 52 -67z m489 57 c106
-18 150 -38 191 -82 l38 -42 -92 -3 c-51 -1 -135 -1 -187 0 l-94 3 41 67 c23
37 42 68 43 68 0 0 27 -5 60 -11z"/>
<path d="M605 2211 c-64 -27 -81 -110 -32 -158 l27 -28 515 0 515 0 26 27 c37
37 37 99 0 136 l-26 27 -503 2 c-276 1 -511 -2 -522 -6z"/>
<path d="M2095 2209 c-98 -57 -50 -205 59 -185 108 20 104 176 -5 192 -18 2
-43 -1 -54 -7z"/>
<path d="M605 1771 c-64 -27 -81 -110 -32 -158 l27 -28 585 -3 584 -2 33 29
c27 24 33 36 33 71 0 35 -6 47 -33 71 l-32 29 -573 -1 c-314 0 -581 -4 -592
-8z"/>
<path d="M2095 1768 c-74 -40 -73 -139 2 -177 13 -7 85 -11 187 -11 l166 0 32
29 c27 24 33 36 33 71 0 35 -6 47 -33 71 l-32 29 -168 0 c-102 0 -175 -5 -187
-12z"/>
<path d="M605 1331 c-64 -27 -81 -110 -32 -158 l27 -28 735 0 735 0 27 27 c38
39 38 97 0 136 l-27 27 -723 2 c-397 1 -731 -2 -742 -6z"/>
<path d="M2351 1327 c-95 -55 -40 -206 67 -182 73 16 103 109 51 160 -30 31
-85 41 -118 22z"/>
<path d="M605 891 c-64 -27 -81 -110 -32 -158 l27 -28 920 0 920 0 27 27 c38
39 38 97 0 136 l-27 27 -908 2 c-499 1 -916 -2 -927 -6z"/>
<path d="M3725 3430 c-363 -40 -658 -295 -757 -655 -30 -111 -31 -325 0 -436
107 -394 450 -659 852 -659 408 0 757 275 857 677 26 103 23 314 -5 418 -117
427 -515 702 -947 655z m285 -222 c113 -35 198 -86 286 -173 90 -89 130 -153
168 -267 106 -314 -44 -673 -342 -818 -191 -93 -413 -93 -604 0 -298 145 -448
504 -342 818 38 114 78 178 168 267 181 179 432 244 666 173z"/>
<path d="M3388 2644 c-35 -18 -48 -43 -48 -89 0 -65 69 -110 131 -85 39 16 59
46 59 88 0 44 -14 68 -50 87 -36 19 -57 18 -92 -1z"/>
<path d="M3788 2643 c-64 -41 -63 -128 2 -166 41 -25 75 -21 112 12 27 24 33
36 33 70 0 75 -85 124 -147 84z"/>
<path d="M4204 2650 c-54 -21 -72 -105 -34 -153 27 -34 78 -44 118 -23 37 19
52 44 52 86 0 42 -15 67 -50 85 -32 17 -54 18 -86 5z"/>
</g>
</svg>
